<?xml version="1.0" encoding="UTF-8" standalone="no"?>
<svg
   xmlns:dc="http://purl.org/dc/elements/1.1/"
   xmlns:cc="http://creativecommons.org/ns#"
   xmlns:rdf="http://www.w3.org/1999/02/22-rdf-syntax-ns#"
   xmlns:svg="http://www.w3.org/2000/svg"
   xmlns="http://www.w3.org/2000/svg"
   xmlns:sodipodi="http://sodipodi.sourceforge.net/DTD/sodipodi-0.dtd"
   xmlns:inkscape="http://www.inkscape.org/namespaces/inkscape"
   version="1.1"
   x="0px"
   y="0px"
   viewBox="0 0 44 68"
   xml:space="preserve"
   id="svg28"
   sodipodi:docname="piston.svg"
   width="44"
   height="68"
   inkscape:version="0.92.2 (5c3e80d, 2017-08-06)"><metadata
     id="metadata34"><rdf:RDF><cc:Work
         rdf:about=""><dc:format>image/svg+xml</dc:format><dc:type
           rdf:resource="http://purl.org/dc/dcmitype/StillImage" /><dc:title></dc:title></cc:Work></rdf:RDF></metadata><defs
     id="defs32" /><sodipodi:namedview
     pagecolor="#ffffff"
     bordercolor="#666666"
     borderopacity="1"
     objecttolerance="10"
     gridtolerance="10"
     guidetolerance="10"
     inkscape:pageopacity="0"
     inkscape:pageshadow="2"
     inkscape:window-width="1065"
     inkscape:window-height="527"
     id="namedview30"
     showgrid="false"
     fit-margin-top="3"
     fit-margin-left="3"
     fit-margin-right="3"
     fit-margin-bottom="3"
     inkscape:zoom="2.95"
     inkscape:cx="-13.59322"
     inkscape:cy="26"
     inkscape:window-x="0"
     inkscape:window-y="28"
     inkscape:window-maximized="0"
     inkscape:current-layer="g22" /><g
     id="g22"
     transform="translate(-10,2)"><rect
       x="38"
       y="9"
       width="2"
       height="2"
       id="rect4" /><path
       d="m 32,43 c -4.411,0 -8,3.589 -8,8 0,4.411 3.589,8 8,8 4.411,0 8,-3.589 8,-8 0,-4.411 -3.589,-8 -8,-8 z m 0,14 c -3.309,0 -6,-2.691 -6,-6 0,-3.309 2.691,-6 6,-6 3.309,0 6,2.691 6,6 0,3.309 -2.691,6 -6,6 z"
       id="path6"
       inkscape:connector-curvature="0" /><path
       d="m 38,33 v -6 h 4.323 l 2,5 H 51 V 4.307 L 50.352,4.063 C 50.018,3.938 42.065,1 32,1 21.935,1 13.982,3.938 13.648,4.063 L 13,4.307 V 32 h 6.677 l 2,-5 H 26 v 6 c 0,2.853 0,4.604 -3.538,10 H 16 v 16 h 7.529 c 2.242,2.619 5.161,4 8.471,4 3.31,0 6.229,-1.381 8.471,-4 H 48 V 43 H 41.538 C 38,37.604 38,35.853 38,33 Z M 32,3 c 8.089,0 14.92,2.027 17,2.713 V 9 h -7 v 2 h 7 v 2 H 15 V 11 H 36 V 9 H 15 V 5.713 C 17.08,5.027 23.911,3 32,3 Z m -11.677,22 -2,5 H 15 V 15 h 34 v 15 h -3.323 l -2,-5 z M 46,50 h -4 v 2 h 4 v 5 h -6.481 l -0.301,0.377 C 37.303,59.781 34.874,61 32,61 29.126,61 26.697,59.781 24.782,57.377 L 24.481,57 H 18 v -5 h 4 v -2 h -4 v -5 h 5.535 l 0.297,-0.445 C 28,38.303 28,36.078 28,33 v -6 h 8 v 6 c 0,3.078 0,5.303 4.168,11.555 L 40.465,45 H 46 Z"
       id="path8"
       inkscape:connector-curvature="0" /><rect
       x="30"
       y="29"
       width="2"
       height="2"
       id="rect18" /><rect
       x="30"
       y="33"
       width="2"
       height="2"
       id="rect20" /></g></svg>